<?xml version="1.0" standalone="no"?>
<!DOCTYPE svg PUBLIC "-//W3C//DTD SVG 20010904//EN"
 "http://www.w3.org/TR/2001/REC-SVG-20010904/DTD/svg10.dtd">
<svg version="1.0" xmlns="http://www.w3.org/2000/svg"
 width="2223.000000pt" height="973.000000pt" viewBox="0 0 2223.000000 973.000000"
 preserveAspectRatio="xMidYMid meet">
<metadata>
Created by potrace 1.16, written by Peter Selinger 2001-2019
</metadata>
<g transform="translate(0.000000,973.000000) scale(0.100000,-0.100000)"
fill="#e21c1c" stroke="none">
<path d="M11480 8484 c-675 -29 -1225 -153 -1685 -379 -288 -142 -490 -289
-714 -521 -107 -110 -132 -132 -137 -117 -4 10 -20 52 -35 94 -141 373 -508
618 -1084 724 -335 61 -240 59 -2227 62 -1736 4 -1817 3 -1822 -14 -4 -13
-1362 -5084 -1856 -6930 l-8 -33 837 0 837 0 264 984 263 984 906 5 c568 3
949 9 1021 16 434 43 759 110 1047 216 204 76 487 228 626 338 21 16 39 28 41
26 2 -2 -30 -128 -70 -279 -142 -527 -158 -628 -159 -945 0 -248 10 -324 61
-482 161 -494 602 -800 1335 -928 256 -44 414 -56 794 -62 587 -9 1133 28
1755 118 209 30 602 98 609 105 7 6 331 1397 327 1401 -2 2 -44 -3 -92 -11
-304 -52 -793 -103 -1304 -138 -258 -17 -1029 -17 -1139 0 -320 51 -497 170
-556 374 -24 81 -24 250 -1 373 21 113 697 2638 738 2759 113 333 286 542 552
666 232 109 516 147 1011 136 553 -12 1046 -55 1572 -138 112 -17 204 -30 206
-27 11 13 508 1391 503 1396 -9 9 -277 61 -501 98 -340 55 -668 91 -1039 115
-173 11 -738 20 -876 14z m-4751 -1504 c262 -27 405 -99 473 -237 27 -55 33
-80 36 -153 2 -49 -1 -117 -7 -152 -15 -87 -264 -1022 -302 -1133 -131 -386
-382 -564 -849 -605 -143 -12 -1600 -13 -1600 -1 0 5 133 505 296 1112 162
607 299 1121 305 1142 l10 37 768 0 c458 0 810 -4 870 -10z"/>
<path d="M13975 5810 c-263 -26 -463 -104 -596 -235 -95 -93 -142 -192 -161
-340 -21 -163 27 -295 157 -433 83 -89 144 -133 395 -287 340 -209 431 -278
471 -358 40 -78 31 -215 -22 -318 -52 -102 -170 -176 -335 -210 -102 -22 -123
-22 -852 -6 -49 1 -67 -25 -86 -127 -15 -77 -16 -91 -3 -103 43 -43 674 -80
897 -53 418 52 697 251 766 548 24 101 21 245 -6 326 -61 186 -180 290 -653
577 -226 137 -309 198 -353 262 -43 62 -51 119 -30 205 30 122 101 193 239
237 131 42 273 50 666 36 407 -15 372 -25 398 118 24 133 33 129 -277 150
-209 15 -516 20 -615 11z"/>
<path d="M15460 5556 c-126 -20 -125 -19 -160 -221 -11 -66 -23 -132 -26 -147
l-6 -28 -192 0 c-224 0 -225 0 -246 -102 -21 -105 -16 -108 229 -133 85 -8
156 -16 157 -18 2 -2 -49 -266 -113 -587 -133 -676 -138 -718 -88 -815 36 -71
89 -114 177 -145 120 -42 475 -37 520 7 19 20 45 159 35 187 -6 14 -28 16
-175 16 -232 0 -252 9 -252 110 0 39 194 1075 227 1208 5 22 6 22 214 22 201
0 209 1 233 23 39 33 63 186 34 215 -9 9 -72 12 -220 12 -114 0 -208 3 -208 6
0 4 14 81 31 172 16 91 29 179 27 196 -3 31 -4 31 -63 33 -33 0 -94 -4 -135
-11z"/>
<path d="M16679 5165 c-298 -56 -520 -232 -635 -506 -45 -106 -68 -194 -109
-417 -54 -294 -46 -444 30 -599 68 -138 206 -245 375 -290 52 -14 103 -18 255
-17 171 1 200 3 286 27 252 67 427 207 540 430 62 125 89 215 135 452 44 226
51 394 21 504 -55 204 -183 334 -392 402 -60 19 -96 22 -250 25 -126 2 -203
-1 -256 -11z m333 -256 c117 -25 200 -92 234 -190 32 -92 26 -246 -19 -472
-21 -104 -49 -218 -62 -254 -101 -268 -327 -418 -604 -400 -115 7 -192 37
-251 97 -65 64 -85 125 -84 255 0 102 42 354 85 514 61 225 218 392 419 445
67 18 210 20 282 5z"/>
<path d="M18551 5169 c-99 -19 -219 -67 -296 -118 l-30 -20 3 50 c6 75 -1 79
-139 79 -108 0 -120 -2 -144 -22 -24 -22 -35 -72 -189 -877 -117 -606 -162
-860 -156 -876 12 -31 27 -35 146 -35 122 0 157 12 173 62 6 18 67 330 136
693 69 363 129 667 134 675 12 23 155 89 239 111 43 11 133 24 204 28 158 9
160 10 183 132 23 128 22 129 -113 128 -59 -1 -127 -5 -151 -10z"/>
<path d="M19460 5160 c-279 -59 -481 -214 -610 -465 -55 -109 -91 -226 -136
-445 -76 -370 -44 -570 118 -732 75 -75 208 -142 338 -168 164 -34 481 -25
768 21 68 10 132 24 142 29 23 12 38 62 46 151 6 63 6 66 -17 72 -13 4 -78 0
-144 -8 -280 -34 -545 -43 -665 -25 -36 6 -97 26 -137 46 -122 59 -174 151
-172 303 0 42 8 108 17 146 l17 70 627 5 c540 4 629 7 642 20 9 8 27 69 42
135 32 140 38 332 15 425 -54 219 -223 378 -449 425 -104 21 -332 19 -442 -5z
m396 -274 c149 -67 207 -205 174 -415 l-12 -81 -474 0 c-261 0 -474 2 -474 4
0 2 9 35 21 72 67 219 226 384 420 439 38 10 89 14 169 12 100 -3 123 -7 176
-31z"/>
</g>
</svg>
